<svg width="1200" height="700" viewBox="0 0 1200 700" fill="none" xmlns="http://www.w3.org/2000/svg">
  <rect width="1200" height="700" rx="28" fill="#FAF5FF"/>
  <rect x="28" y="28" width="1144" height="644" rx="24" fill="white"/>

  <rect x="70" y="82" width="280" height="16" rx="8" fill="#D8B4FE"/>
  <rect x="70" y="112" width="470" height="24" rx="12" fill="#8B5CF6"/>
  <rect x="70" y="148" width="410" height="16" rx="8" fill="#E9D5FF"/>

  <rect x="70" y="196" width="1060" height="256" rx="22" fill="url(#campaignHero)"/>
  <rect x="106" y="238" width="280" height="14" rx="7" fill="white" fill-opacity="0.9"/>
  <rect x="106" y="266" width="360" height="24" rx="12" fill="white"/>
  <rect x="106" y="304" width="240" height="13" rx="6.5" fill="white" fill-opacity="0.82"/>

  <rect x="900" y="236" width="190" height="178" rx="18" fill="white" fill-opacity="0.94"/>
  <rect x="930" y="270" width="130" height="12" rx="6" fill="#C4B5FD"/>
  <rect x="930" y="294" width="110" height="32" rx="16" fill="#7C3AED"/>
  <rect x="930" y="340" width="130" height="12" rx="6" fill="#E9D5FF"/>

  <rect x="70" y="484" width="340" height="148" rx="18" fill="#F5F3FF"/>
  <rect x="100" y="518" width="180" height="14" rx="7" fill="#D8B4FE"/>
  <rect x="100" y="546" width="240" height="12" rx="6" fill="#E9D5FF"/>

  <rect x="430" y="484" width="340" height="148" rx="18" fill="#F5F3FF"/>
  <rect x="460" y="518" width="180" height="14" rx="7" fill="#D8B4FE"/>
  <rect x="460" y="546" width="240" height="12" rx="6" fill="#E9D5FF"/>

  <rect x="790" y="484" width="340" height="148" rx="18" fill="#F5F3FF"/>
  <rect x="820" y="518" width="180" height="14" rx="7" fill="#D8B4FE"/>
  <rect x="820" y="546" width="240" height="12" rx="6" fill="#E9D5FF"/>

  <defs>
    <linearGradient id="campaignHero" x1="70" y1="196" x2="1130" y2="452" gradientUnits="userSpaceOnUse">
      <stop stop-color="#8B5CF6"/>
      <stop offset="1" stop-color="#EC4899"/>
    </linearGradient>
  </defs>
</svg>
